<svg width="34" height="34" viewBox="0 0 34 34" fill="none" xmlns="http://www.w3.org/2000/svg">
<path d="M20.9457 17.2258L32.8965 5.27504C33.9829 4.18861 33.9829 2.40125 32.8965 1.31482C31.81 0.228392 30.0227 0.228392 28.9363 1.31482L16.9855 13.2656L5.03478 1.31483C3.94835 0.228393 2.161 0.228393 1.07456 1.31483C0.531348 1.85804 0.250978 2.57649 0.250978 3.29493C0.250978 4.01338 0.531348 4.73183 1.07456 5.27504L13.0253 17.2258L1.07456 29.1765C0.531346 29.7197 0.250977 30.4382 0.250977 31.1566C0.250977 31.8751 0.531346 32.5935 1.07456 33.1367C2.16099 34.2232 3.94835 34.2232 5.03478 33.1367L16.9855 21.186L28.9363 33.1367C30.0227 34.2232 31.81 34.2232 32.8965 33.1367C33.9829 32.0503 33.9829 30.2629 32.8965 29.1765L20.9457 17.2258Z" fill="white"/>
</svg>
