<svg width="70" height="70" viewBox="0 0 70 70" fill="none" xmlns="http://www.w3.org/2000/svg">
<g filter="url(#filter0_bd_1_176)">
<rect x="5" y="5" width="60" height="60" rx="15" fill="white"/>
<path d="M31.1512 38.9094C33.4253 38.713 35.7119 38.713 37.986 38.9094C39.2296 38.9932 40.4648 39.1761 41.6802 39.4561C44.309 39.9889 46.0246 41.0404 46.744 42.5826C47.3189 43.8639 47.3037 45.3375 46.7025 46.6064C45.9692 48.1486 44.2536 49.2001 41.5833 49.7469C40.3721 50.0214 39.1416 50.1995 37.903 50.2797C36.5333 50.4339 35.3711 50.4339 34.2919 50.4339H33.863C33.2516 50.3672 32.7881 49.8443 32.7881 49.2211C32.7881 48.598 33.2516 48.0751 33.863 48.0084L34.8096 48.0082C35.7585 47.997 36.7131 47.9523 37.6678 47.8682C38.794 47.794 39.9132 47.6346 41.0161 47.3915C42.9115 46.9709 44.1014 46.3681 44.475 45.5689C44.7656 44.9576 44.7656 44.2454 44.475 43.6341C44.1014 42.821 42.9115 42.1901 41.0576 41.8115C39.9376 41.5569 38.7995 41.3928 37.654 41.3208C35.5138 41.1245 33.3605 41.1245 31.2203 41.3208C30.0895 41.395 28.9657 41.5544 27.8583 41.7975C25.9628 42.2181 24.7867 42.821 24.3993 43.6201C24.2621 43.9236 24.1913 44.2536 24.1918 44.5875C24.191 44.9259 24.2618 45.2605 24.3993 45.5689C25.0579 46.4803 26.0598 47.0742 27.1665 47.2093L27.327 47.2531C27.6911 47.3804 27.9769 47.6788 28.0883 48.0595C28.2155 48.4946 28.0939 48.9654 27.7725 49.2814C27.4511 49.5975 26.9831 49.7066 26.5577 49.5646C24.774 49.2699 23.2095 48.1925 22.2825 46.6204C21.6868 45.3471 21.6868 43.87 22.2825 42.5966C23.0158 41.0124 24.7314 39.9889 27.374 39.4421C28.6182 39.1694 29.8808 38.9913 31.1512 38.9094ZM31.2781 19.2148C34.4284 17.894 38.0537 18.6271 40.4624 21.0719C42.8711 23.5168 43.5886 27.1915 42.28 30.3816C40.9715 33.5717 37.8948 35.6483 34.4856 35.6427C29.8375 35.6349 26.0735 31.8145 26.0735 27.1044L26.0813 26.7356C26.2216 23.4296 28.2404 20.4883 31.2781 19.2148ZM34.4856 21.0056C32.887 21.0019 31.3526 21.6428 30.2209 22.787C29.0892 23.9311 28.4532 25.4845 28.4532 27.1044C28.4476 29.5781 29.9138 31.8113 32.1675 32.7619C34.4212 33.7124 37.0181 33.1929 38.7462 31.4458C40.4743 29.6986 40.993 27.0683 40.0601 24.7824C39.1272 22.4965 36.9267 21.0056 34.4856 21.0056Z" fill="#D562FF"/>
</g>
<defs>
<filter id="filter0_bd_1_176" x="-1" y="-1" width="71" height="71" filterUnits="userSpaceOnUse" color-interpolation-filters="sRGB">
<feFlood flood-opacity="0" result="BackgroundImageFix"/>
<feGaussianBlur in="BackgroundImageFix" stdDeviation="2"/>
<feComposite in2="SourceAlpha" operator="in" result="effect1_backgroundBlur_1_176"/>
<feColorMatrix in="SourceAlpha" type="matrix" values="0 0 0 0 0 0 0 0 0 0 0 0 0 0 0 0 0 0 127 0" result="hardAlpha"/>
<feOffset/>
<feGaussianBlur stdDeviation="2.5"/>
<feComposite in2="hardAlpha" operator="out"/>
<feColorMatrix type="matrix" values="0 0 0 0 0 0 0 0 0 0 0 0 0 0 0 0 0 0 0.1 0"/>
<feBlend mode="normal" in2="effect1_backgroundBlur_1_176" result="effect2_dropShadow_1_176"/>
<feBlend mode="normal" in="SourceGraphic" in2="effect2_dropShadow_1_176" result="shape"/>
</filter>
</defs>
</svg>
